<svg viewBox="0 0 1000 500" xmlns="http://www.w3.org/2000/svg">
  <!-- Background -->
  <rect width="1000" height="500" fill="#f5f1e8"/>
  
  <!-- Figures with raised hands -->
  <g id="figures">
    <!-- Figure 1 -->
    <circle cx="150" cy="120" r="35" fill="#7B2CBF"/>
    <path d="M 150 160 Q 130 200 125 240 L 175 240 Q 170 200 150 160" fill="#7B2CBF"/>
    <path d="M 125 160 Q 100 140 70 130" stroke="#7B2CBF" stroke-width="35" fill="none" stroke-linecap="round"/>
    <path d="M 175 160 Q 200 140 230 130" stroke="#7B2CBF" stroke-width="35" fill="none" stroke-linecap="round"/>
    <circle cx="60" cy="110" r="25" fill="#7B2CBF"/>
    <circle cx="240" cy="110" r="25" fill="#7B2CBF"/>
    
    <!-- Figure 2 -->
    <circle cx="350" cy="120" r="35" fill="#7B2CBF"/>
    <path d="M 350 160 Q 330 200 325 240 L 375 240 Q 370 200 350 160" fill="#7B2CBF"/>
    <path d="M 325 160 Q 300 140 270 130" stroke="#7B2CBF" stroke-width="35" fill="none" stroke-linecap="round"/>
    <path d="M 375 160 Q 400 140 430 130" stroke="#7B2CBF" stroke-width="35" fill="none" stroke-linecap="round"/>
    <circle cx="260" cy="110" r="25" fill="#7B2CBF"/>
    <circle cx="440" cy="110" r="25" fill="#7B2CBF"/>
    
    <!-- Figure 3 -->
    <circle cx="550" cy="120" r="35" fill="#7B2CBF"/>
    <path d="M 550 160 Q 530 200 525 240 L 575 240 Q 570 200 550 160" fill="#7B2CBF"/>
    <path d="M 525 160 Q 500 140 470 130" stroke="#7B2CBF" stroke-width="35" fill="none" stroke-linecap="round"/>
    <path d="M 575 160 Q 600 140 630 130" stroke="#7B2CBF" stroke-width="35" fill="none" stroke-linecap="round"/>
    <circle cx="460" cy="110" r="25" fill="#7B2CBF"/>
    <circle cx="640" cy="110" r="25" fill="#7B2CBF"/>
    
    <!-- Figure 4 -->
    <circle cx="750" cy="120" r="35" fill="#7B2CBF"/>
    <path d="M 750 160 Q 730 200 725 240 L 775 240 Q 770 200 750 160" fill="#7B2CBF"/>
    <path d="M 725 160 Q 700 140 670 130" stroke="#7B2CBF" stroke-width="35" fill="none" stroke-linecap="round"/>
    <path d="M 775 160 Q 800 140 830 130" stroke="#7B2CBF" stroke-width="35" fill="none" stroke-linecap="round"/>
    <circle cx="660" cy="110" r="25" fill="#7B2CBF"/>
    <circle cx="840" cy="110" r="25" fill="#7B2CBF"/>
    
    <!-- Figure 5 -->
    <circle cx="950" cy="120" r="35" fill="#7B2CBF"/>
    <path d="M 950 160 Q 930 200 925 240 L 975 240 Q 970 200 950 160" fill="#7B2CBF"/>
    <path d="M 925 160 Q 900 140 870 130" stroke="#7B2CBF" stroke-width="35" fill="none" stroke-linecap="round"/>
    <path d="M 975 160 Q 1000 140 1030 130" stroke="#7B2CBF" stroke-width="35" fill="none" stroke-linecap="round"/>
    <circle cx="860" cy="110" r="25" fill="#7B2CBF"/>
  </g>
  
  <!-- Flowers above figures -->
  <g id="flowers">
    <circle cx="140" cy="80" r="8" fill="#C9A961"/>
    <circle cx="150" cy="70" r="8" fill="#C9A961"/>
    <circle cx="160" cy="80" r="8" fill="#C9A961"/>
    <circle cx="150" cy="85" r="8" fill="#C9A961"/>
    <circle cx="150" cy="75" r="6" fill="#D4AF37"/>
    
    <circle cx="340" cy="80" r="8" fill="#C9A961"/>
    <circle cx="350" cy="70" r="8" fill="#C9A961"/>
    <circle cx="360" cy="80" r="8" fill="#C9A961"/>
    <circle cx="350" cy="85" r="8" fill="#C9A961"/>
    <circle cx="350" cy="75" r="6" fill="#D4AF37"/>
    
    <circle cx="540" cy="80" r="8" fill="#C9A961"/>
    <circle cx="550" cy="70" r="8" fill="#C9A961"/>
    <circle cx="560" cy="80" r="8" fill="#C9A961"/>
    <circle cx="550" cy="85" r="8" fill="#C9A961"/>
    <circle cx="550" cy="75" r="6" fill="#D4AF37"/>
    
    <circle cx="740" cy="80" r="8" fill="#C9A961"/>
    <circle cx="750" cy="70" r="8" fill="#C9A961"/>
    <circle cx="760" cy="80" r="8" fill="#C9A961"/>
    <circle cx="750" cy="85" r="8" fill="#C9A961"/>
    <circle cx="750" cy="75" r="6" fill="#D4AF37"/>
    
    <circle cx="940" cy="80" r="8" fill="#C9A961"/>
    <circle cx="950" cy="70" r="8" fill="#C9A961"/>
    <circle cx="960" cy="80" r="8" fill="#C9A961"/>
    <circle cx="950" cy="85" r="8" fill="#C9A961"/>
    <circle cx="950" cy="75" r="6" fill="#D4AF37"/>
  </g>
  
  <!-- Divider line -->
  <rect x="0" y="280" width="1000" height="8" fill="#C9A961"/>
  
  <!-- Text -->
  <text x="500" y="380" font-size="120" font-weight="bold" text-anchor="middle" fill="#C9A961" font-family="Arial, sans-serif">RACHANA</text>
  <text x="500" y="460" font-size="48" font-weight="bold" text-anchor="middle" fill="#C9A961" font-family="Arial, sans-serif">SOCIETY FOR SOCIAL RECONSTRUCTION</text>
</svg>